<svg width="91" height="89" viewBox="0 0 91 89" fill="none" xmlns="http://www.w3.org/2000/svg">
<path d="M4.58496 3.7832H86.3454V84.7881H4.58496V3.7832Z" fill="url(#paint0_radial_167_574)"/>
<path d="M4.58496 3.78375H86.3454V84.7886H4.58496V3.78375ZM0.869385 88.5724H90.0789V0H0.869385V88.5724ZM59.3003 31.5797C59.3003 31.2705 59.4075 31.1249 59.7469 31.1249H65.5882C65.8919 31.1249 66.0348 31.2341 66.0348 31.5797V61.4495C66.0348 61.7587 65.9634 61.9043 65.5882 61.9043H59.8184C59.4432 61.9043 59.3361 61.7224 59.3361 61.4131V31.5797H59.3003V31.5797ZM58.8895 22.9753C58.8895 20.5559 60.5686 19.1188 62.6765 19.1188C64.9452 19.1188 66.4635 20.6651 66.4635 22.9753C66.4635 25.4675 64.8737 26.8318 62.6051 26.8318C60.4615 26.85 58.8895 25.4857 58.8895 22.9753ZM42.1694 44.0224C41.1333 39.8203 38.6682 30.6702 37.7393 26.2315H37.6678C36.8819 30.652 34.9169 38.1467 33.3628 44.0224H42.1694ZM31.8444 50.1528L28.9148 61.5041C28.8434 61.8133 28.7362 61.8861 28.361 61.8861H22.8949C22.5197 61.8861 22.4483 61.7769 22.5197 61.3221L33.077 23.703C33.2556 23.0299 33.3806 22.4114 33.4521 20.5559C33.4521 20.2831 33.5593 20.1739 33.7558 20.1739H41.5621C41.83 20.1739 41.9372 20.2467 42.0086 20.5559L53.8342 61.3949C53.9056 61.7042 53.8342 61.8861 53.5305 61.8861H47.3676C47.064 61.8861 46.8853 61.8133 46.8139 61.5404L43.7592 50.1528H31.8444Z" fill="#FF7F18"/>
<defs>
<radialGradient id="paint0_radial_167_574" cx="0" cy="0" r="1" gradientUnits="userSpaceOnUse" gradientTransform="translate(31.5396 21.9605) scale(62.1406 61.2673)">
<stop stop-color="#423325" stop-opacity="0.98"/>
<stop offset="1" stop-color="#1C0A00"/>
</radialGradient>
</defs>
</svg>
